HIERARCHY
ROOT Hips
{
	OFFSET 0.000000 0.000000 0.000000 
	CHANNELS 6 Xposition Yposition Zposition Yrotation Zrotation Xrotation 
	JOINT Lumbar
	{
		OFFSET 0.000000 0.000000 0.000000 
		CHANNELS 3 Zrotation Xrotation Yrotation
		JOINT Neck
		{
			OFFSET 0.000000 0.445665 0.000000 
			CHANNELS 3 Zrotation Xrotation Yrotation
			End Site
			{
				OFFSET 0.000000 0.227535 0.000000 
			}
		}
		JOINT RightShoulder
		{
			OFFSET 0.019635 0.377685 0.194865 
			CHANNELS 3 Zrotation Xrotation Yrotation
			JOINT RightElbow
			{
				OFFSET 0.000000 -0.243375 0.000000 
				CHANNELS 2 Zrotation Yrotation
				JOINT RightWrist
				{
					OFFSET 0.000000 -0.264825 0.000000 
					CHANNELS 2 Zrotation Xrotation
					End Site
					{
						OFFSET 0.006600 -0.176220 0.000990 
					}
				}
			}
		}
		JOINT LeftShoulder
		{
			OFFSET 0.019635 0.377685 -0.194865 
			CHANNELS 3 Zrotation Xrotation Yrotation
			JOINT LeftElbow
			{
				OFFSET 0.000000 -0.243375 0.000000 
				CHANNELS 2 Zrotation Yrotation
				JOINT LeftWrist
				{
					OFFSET 0.000000 -0.264825 0.000000 
					CHANNELS 2 Zrotation Xrotation
					End Site
					{
						OFFSET 0.006600 -0.176220 -0.000990 
					}
				}
			}
		}
	}
	JOINT RightHip
	{
		OFFSET 0.052140 -0.069960 0.075570 
		CHANNELS 3 Zrotation Xrotation Yrotation
		JOINT RightKnee
		{
			OFFSET 0.000000 -0.402270 0.000000 
			CHANNELS 1 Zrotation
			JOINT RightAnkle
			{
				OFFSET 0.000000 -0.404085 0.000000 
				CHANNELS 3 Zrotation Xrotation Yrotation
				End Site
				{
					OFFSET 0.204105 -0.089430 0.008415 
				}
			}
		}
	}
	JOINT LeftHip
	{
		OFFSET 0.052140 -0.069960 -0.075570 
		CHANNELS 3 Zrotation Xrotation Yrotation
		JOINT LeftKnee
		{
			OFFSET 0.000000 -0.402270 0.000000 
			CHANNELS 1 Zrotation
			JOINT LeftAnkle
			{
				OFFSET 0.000000 -0.404085 0.000000 
				CHANNELS 3 Zrotation Xrotation Yrotation
				End Site
				{
					OFFSET 0.204105 -0.089430 -0.008415 
				}
			}
		}
	}
}
MOTION
Frames: 26
Frame Time: 0.02
-0 0.95578 -0 169.9018 0 -6.86227 4.64426 8.41033 -10.05477 -43.72904 6.7366 8.33751 36.14571 -24.97321 3.32825 11.12813 81.97284 0.8445 -2.77301 37.93319 4.22756 -12.9231 10.32212 -84.77362 -2.23095 2.12826 -3.90096 8.08012 -1.79974 -6.65672 -11.45417 -1.69606 -7.00671 -11.16046 8.60818 16.59455 -1.60436 -3.17795 2.49772 5.67319
0.00053 0.95584 0.00153 169.77451 0 -6.85322 4.59035 8.34762 -10.0127 -43.70956 6.62247 8.24787 36.15438 -24.89814 3.36441 11.09886 81.94909 0.83432 -2.74009 38.24457 4.32499 -13.35164 10.57305 -84.68438 -2.28236 2.29074 -3.84496 7.9929 -1.57695 -6.64785 -11.49368 -1.68861 -7.07976 -11.107 8.51664 16.44979 -1.67951 -3.13582 2.54379 5.85748
0.00106 0.95589 0.00307 169.64843 0 -6.84424 4.53656 8.28504 -9.97112 -43.68982 6.50911 8.1586 36.16316 -24.82375 3.40092 11.06989 81.92546 0.82421 -2.70753 38.55411 4.4217 -13.77855 10.82292 -84.59417 -2.33349 2.45267 -3.78866 7.90577 -1.35555 -6.6402 -11.53242 -1.68131 -7.15232 -11.05218 8.42551 16.30258 -1.75733 -3.09231 2.59021 6.04331
0.00158 0.95594 0.00461 169.52517 0 -6.83542 4.48295 8.2227 -9.93076 -43.66887 6.39732 8.06973 36.17208 -24.75084 3.439 11.04171 81.90238 0.8143 -2.67614 38.85959 4.51705 -14.20246 11.07137 -84.49836 -2.3841 2.61429 -3.73309 7.81843 -1.1395 -6.63221 -11.57029 -1.67438 -7.22137 -10.99318 8.33523 16.14466 -1.84313 -3.04482 2.63789 6.23779
0.00213 0.956 0.00612 169.38604 0 -6.82576 4.42862 8.15951 -9.88361 -43.65439 6.27679 7.97849 36.17977 -24.66948 3.46851 11.00925 81.87672 0.80337 -2.63862 39.18694 4.6203 -14.64144 11.32778 -84.43118 -2.43759 2.77791 -3.6767 7.73254 -0.89753 -6.61969 -11.61497 -1.66533 -7.30623 -10.95847 8.2406 16.04407 -1.88252 -3.02074 2.6782 6.38727
0.00263 0.95603 0.0077 169.28123 0 -6.81787 4.37572 8.09789 -9.85109 -43.62617 6.17515 7.89254 36.19036 -24.60648 3.51629 10.98595 81.8563 0.79458 -2.61408 39.46747 4.70627 -15.04866 11.56679 -84.30422 -2.48485 2.9369 -3.62001 7.64343 -0.70897 -6.62106 -11.6437 -1.66088 -7.35947 -10.87097 8.15515 15.82191 -2.02285 -2.94558 2.73453 6.63125
0.00305 0.956 0.00947 169.26619 0 -6.81466 4.32658 8.04118 -9.85714 -43.55847 6.12233 7.8181 36.20731 -24.59093 3.6168 10.98743 81.85244 0.79187 -2.62626 39.62347 4.74913 -15.37153 11.76532 -83.99647 -2.51609 3.08889 -3.57706 7.54473 -0.68099 -6.62889 -11.64019 -1.66852 -7.30826 -10.64234 8.09421 15.24921 -2.4318 -2.73586 2.83422 7.15736
0.00342 0.95594 0.01131 169.28633 0 -6.81313 4.27879 7.98571 -9.87801 -43.47714 6.08911 7.74969 36.22769 -24.59451 3.73571 10.99821 81.85352 0.79132 -2.65139 39.73141 4.77374 -15.66192 11.94499 -83.63079 -2.54081 3.23524 -3.53006 7.44284 -0.70384 -6.6584 -11.6184 -1.68096 -7.22866 -10.3596 8.04238 14.55617 -2.94447 -2.47345 2.95023 7.77565
0.0038 0.95588 0.01313 169.29408 0 -6.81115 4.23059 7.9295 -9.8937 -43.40289 6.04909 7.68022 36.24738 -24.59141 3.84453 11.00512 81.85091 0.78962 -2.6701 39.85851 4.80379 -15.96563 12.12878 -83.3016 -2.56779 3.38066 -3.47665 7.34271 -0.69576 -6.69651 -11.59727 -1.69161 -7.17252 -10.09795 7.98714 13.92671 -3.41745 -2.23022 3.05966 8.3386
0.00423 0.95586 0.01491 169.28816 0 -6.80846 4.18191 7.87485 -9.90405 -43.32474 6.00031 7.60291 36.26266 -24.57973 3.95958 11.01073 81.85419 0.78845 -2.69119 39.99722 4.84593 -16.27606 12.33187 -82.93007 -2.59785 3.54104 -3.46221 7.24113 -0.72351 -6.64943 -11.60843 -1.70054 -7.06994 -9.84995 7.92977 13.25855 -3.861 -2.00582 3.16608 8.95794
0.00455 0.95576 0.0168 169.31716 0 -6.80687 4.13406 7.81624 -9.92752 -43.25172 5.97428 7.54431 36.28889 -24.59056 4.06737 11.02099 81.84664 0.78691 -2.71023 40.09994 4.85846 -16.56392 12.48962 -82.63233 -2.61978 3.66862 -3.36046 7.14202 -0.68525 -6.7941 -11.54797 -1.71428 -7.05972 -9.56208 7.8778 12.64398 -4.38793 -1.73133 3.28199 9.48211
0.00459 0.95547 0.01902 169.45053 0 -6.81473 4.09246 7.75497 -9.99656 -43.19482 6.00773 7.52821 36.33711 -24.65878 4.13962 11.044 81.80609 0.78237 -2.72195 40.11924 4.79416 -16.8049 12.53203 -82.55803 -2.62223 3.70952 -3.06189 7.04896 -0.48224 -7.38589 -11.29568 -1.73913 -7.28938 -9.16507 7.849 12.19315 -5.14163 -1.31718 3.42583 9.71761
0.00452 0.9551 0.02135 169.61491 0 -6.82248 4.05085 7.68811 -10.07584 -43.14428 6.06328 7.53254 36.39817 -24.74943 4.20643 11.07096 81.75506 0.77786 -2.73082 40.10373 4.7003 -17.02294 12.52819 -82.55907 -2.61642 3.71702 -2.66689 6.95896 -0.20589 -8.18514 -10.97253 -1.76873 -7.61579 -8.73213 7.82353 11.80286 -5.9715 -0.85707 3.57762 9.85463
0.00451 0.95476 0.02363 169.75399 0 -6.82571 4.0064 7.61814 -10.14199 -43.09114 6.10756 7.53209 36.45752 -24.8293 4.28236 11.09463 81.7098 0.77407 -2.74011 40.10077 4.62009 -17.24647 12.54248 -82.52182 -2.61359 3.73835 -2.28841 6.86834 0.05709 -8.93886 -10.67982 -1.79701 -7.91403 -8.32361 7.78943 11.39392 -6.75225 -0.4274 3.72197 10.03908
0.00447 0.95444 0.02592 169.9409 0 -6.84791 3.97393 7.57189 -10.2446 -43.03435 6.15705 7.51132 36.49729 -24.91052 4.32902 11.12487 81.65952 0.76648 -2.75381 40.10783 4.53965 -17.48944 12.56953 -82.49914 -2.61404 3.76569 -2.02756 6.77364 0.23582 -9.48406 -10.39047 -1.82247 -8.14991 -7.87885 7.785 10.94372 -7.59818 0.04428 3.88289 10.21603
0.00445 0.95407 0.02821 170.03601 0 -6.83105 3.91661 7.47509 -10.27332 -42.98928 6.20151 7.53956 36.58369 -24.99625 4.43745 11.14233 81.61832 0.76775 -2.75713 40.08903 4.45125 -17.68723 12.55773 -82.46539 -2.60547 3.77201 -1.49573 6.68912 0.60586 -10.51689 -10.08186 -1.85419 -8.53235 -7.50199 7.72031 10.59499 -8.32468 0.43887 4.01117 10.38329
0.00451 0.95356 0.03049 169.86284 0 -6.7021 3.78971 7.23896 -10.09703 -42.95406 6.21943 7.68195 36.77147 -25.07017 4.69721 11.12275 81.59434 0.78548 -2.73522 39.98451 4.36237 -17.76219 12.46282 -82.37751 -2.57681 3.73373 -0.26757 6.62369 1.50555 -12.80515 -9.69938 -1.9078 -9.3534 -7.31972 7.48125 10.51538 -8.70556 0.60725 4.04564 10.55372
0.00458 0.953 0.03277 169.59809 0 -6.53478 3.63812 6.95268 -9.84567 -42.9341 6.2328 7.87601 37.01014 -25.15152 5.02276 11.09027 81.58155 0.81366 -2.70222 39.8595 4.26392 -17.7926 12.32797 -82.27705 -2.53896 3.67442 1.23393 6.56963 2.59167 -15.58161 -9.30646 -1.96655 -10.30812 -7.20763 7.18299 10.53531 -8.96251 0.69644 4.04719 10.7162
0.00465 0.95247 0.03502 169.37892 0 -6.38763 3.49829 6.68972 -9.62758 -42.92133 6.25284 8.05694 37.24154 -25.24135 5.33196 11.06421 81.57072 0.84224 -2.67263 39.75934 4.16061 -17.84693 12.20323 -82.18616 -2.50337 3.62135 2.63053 6.51627 3.58033 -18.1645 -8.94429 -2.01897 -11.16386 -7.06475 6.91613 10.50837 -9.27389 0.82312 4.06493 10.87811
0.00473 0.95193 0.03738 169.14127 0 -6.22835 3.35562 6.42306 -9.41339 -42.85032 6.25409 8.19469 37.4069 -25.28085 5.58502 11.03598 81.53071 0.84889 -2.65048 39.59306 4.09519 -17.88792 12.11131 -82.08199 -2.47517 3.58133 3.9543 6.43967 4.62622 -20.6468 -8.47276 -2.08793 -12.18383 -6.91579 6.62926 10.49206 -9.5962 0.94563 4.07796 11.05452
0.00477 0.9514 0.03952 168.92356 0 -6.08596 3.21371 6.15385 -9.17317 -42.90266 6.29328 8.43463 37.72117 -25.42798 5.96917 11.0091 81.5531 0.90396 -2.60941 39.55918 3.94888 -17.94265 11.94151 -82.00099 -2.43001 3.5093 5.48668 6.41231 5.59505 -23.4373 -8.22377 -2.12423 -12.89286 -6.79682 6.37139 10.47437 -9.86502 1.05678 4.09264 11.19984
0.00473 0.95087 0.04114 168.75262 0 -5.99305 3.07354 5.87639 -8.87868 -43.30368 6.43677 8.94182 38.43887 -25.85947 6.71331 10.98987 81.75538 1.08794 -2.52629 39.90285 3.58271 -18.07849 11.57271 -81.99151 -2.3361 3.35685 7.58406 6.53331 6.31757 -27.07904 -8.62427 -2.06345 -12.70581 -6.7425 6.19582 10.44626 -10.01783 1.16093 4.12179 11.26332
0.00461 0.95037 0.04253 168.61084 0 -5.91943 2.93605 5.60059 -8.56066 -43.82517 6.61884 9.55026 39.30365 -26.40128 7.58502 10.97253 82.01835 1.32066 -2.42336 40.37853 3.13562 -18.2236 11.12645 -82.00464 -2.22628 3.17274 9.86978 6.70033 6.95509 -30.98789 -9.24354 -1.9706 -12.20266 -6.71649 6.05366 10.40971 -10.12007 1.25519 4.15324 11.29547
0.00448 0.94988 0.04397 168.4752 0 -5.84159 2.80172 5.33296 -8.25385 -44.28487 6.78411 10.1139 40.09809 -26.89928 8.38849 10.95347 82.2466 1.5326 -2.32433 40.79043 2.72467 -18.34364 10.71116 -82.00402 -2.12649 3.0012 12.03376 6.83665 7.62113 -34.69846 -9.74154 -1.89616 -11.84549 -6.67811 5.90433 10.36509 -10.24462 1.35053 4.18251 11.34163
0.00459 0.94929 0.04562 168.25302 0 -5.74429 2.6486 5.02612 -7.94228 -44.77852 6.94595 10.67474 40.90948 -27.36954 9.23552 10.93657 82.5047 1.73934 -2.24554 41.22093 2.31511 -18.55094 10.31032 -82.01738 -2.01446 2.8358 14.36511 7.01583 8.32973 -38.76233 -10.33074 -1.80592 -11.47888 -6.63928 5.71948 10.37428 -10.36921 1.45769 4.2159 11.39014
0.00415 0.9489 0.04679 168.22106 0 -5.69126 2.53489 4.80172 -7.636 -45.22526 7.1244 11.26416 41.7193 -27.92533 10.02388 10.9171 82.71576 1.9681 -2.12116 41.64011 1.88474 -18.5783 9.864 -82.00753 -1.92436 2.65135 16.38253 7.11507 8.93545 -42.13294 -10.78285 -1.74064 -11.06056 -6.60818 5.61688 10.26805 -10.48143 1.5387 4.24112 11.42427
